<svg viewBox="0 0 1000 986" fill="none" xmlns="http://www.w3.org/2000/svg">
<path d="M640.953 750.906C666.734 750.906 687.828 771.844 687.828 797.781C687.828 823.562 666.734 844.656 640.953 844.656C615.031 844.656 562.828 823.562 562.828 797.781C562.828 771.844 615.031 750.906 640.953 750.906Z" fill="#43740F"/>
<path d="M750.266 876.031C741.625 876.031 734.641 869.047 734.641 860.406C734.641 834.562 713.609 813.531 687.766 813.531C679.125 813.531 672.141 806.547 672.141 797.906C672.141 789.266 679.125 782.281 687.766 782.281C730.844 782.281 765.891 817.328 765.891 860.406C765.891 869.031 758.891 876.031 750.266 876.031Z" fill="#538917"/>
<path d="M640.891 860.375C608.687 860.375 547.109 836.031 547.109 797.875C547.109 759.719 608.687 735.375 640.891 735.375C675.359 735.375 703.391 763.406 703.391 797.875C703.391 832.344 675.359 860.375 640.891 860.375ZM640.891 766.625C617.516 766.625 578.359 786.188 578.359 797.875C578.359 809.562 617.516 829.125 640.891 829.125C658.125 829.125 672.141 815.109 672.141 797.875C672.141 780.641 658.109 766.625 640.891 766.625Z" fill="#43740F"/>
<path d="M249.734 985.406C241.094 985.406 234.109 978.422 234.109 969.781V797.844C234.109 789.203 241.094 782.219 249.734 782.219C258.375 782.219 265.359 789.203 265.359 797.844V969.781C265.359 978.406 258.375 985.406 249.734 985.406Z" fill="#538917"/>
<path d="M249.75 813.469C241.109 813.469 234.125 806.484 234.125 797.844C234.125 772 213.094 750.969 187.25 750.969C178.609 750.969 171.625 743.984 171.625 735.344C171.625 726.703 178.609 719.719 187.25 719.719C230.328 719.719 265.375 754.766 265.375 797.844C265.375 806.484 258.391 813.469 249.75 813.469Z" fill="#538917"/>
<path d="M578.203 266.438C569.563 266.438 562.578 259.453 562.578 250.812C562.578 207.734 597.625 172.688 640.703 172.688C649.344 172.688 656.328 179.672 656.328 188.312C656.328 196.953 649.344 203.938 640.703 203.938C614.859 203.938 593.828 224.969 593.828 250.812C593.828 259.453 586.844 266.438 578.203 266.438Z" fill="#267699"/>
<path d="M531.328 266.438C522.688 266.438 515.703 259.453 515.703 250.812C515.703 181.891 571.781 125.812 640.703 125.812C649.344 125.812 656.328 132.797 656.328 141.438C656.328 150.078 649.344 157.062 640.703 157.062C589 157.062 546.953 199.109 546.953 250.812C546.953 259.453 539.969 266.438 531.328 266.438Z" fill="#267699"/>
<path d="M484.453 266.438C475.813 266.438 468.828 259.453 468.828 250.812C468.828 156.047 545.938 78.9375 640.703 78.9375C649.344 78.9375 656.328 85.9219 656.328 94.5625C656.328 103.203 649.344 110.188 640.703 110.188C563.156 110.188 500.078 173.266 500.078 250.812C500.078 259.453 493.094 266.438 484.453 266.438Z" fill="#267699"/>
<path d="M437.578 266.438C428.938 266.438 421.953 259.453 421.953 250.812C421.953 130.188 520.078 32.0625 640.703 32.0625C649.344 32.0625 656.328 39.0469 656.328 47.6875C656.328 56.3281 649.344 63.3125 640.703 63.3125C537.313 63.3125 453.203 147.422 453.203 250.812C453.203 259.453 446.219 266.438 437.578 266.438Z" fill="#267699"/>
<path d="M437.578 469.531C428.938 469.531 421.953 462.547 421.953 453.906V250.812C421.953 242.172 428.938 235.188 437.578 235.188C446.219 235.188 453.203 242.172 453.203 250.812V453.906C453.203 462.547 446.219 469.531 437.578 469.531Z" fill="#267699"/>
<path d="M484.391 516.438C475.75 516.438 468.766 509.453 468.766 500.812V250.812C468.766 242.172 475.75 235.188 484.391 235.188C493.031 235.188 500.016 242.172 500.016 250.812V500.812C500.016 509.453 493.031 516.438 484.391 516.438Z" fill="#267699"/>
<path d="M531.203 563.375C522.563 563.375 515.578 556.391 515.578 547.75V250.812C515.578 242.172 522.563 235.188 531.203 235.188C539.844 235.188 546.828 242.172 546.828 250.812V547.75C546.828 556.391 539.844 563.375 531.203 563.375Z" fill="#267699"/>
<path d="M578.016 532.094C569.375 532.094 562.391 525.109 562.391 516.469V250.812C562.391 242.172 569.375 235.188 578.016 235.188C586.656 235.188 593.641 242.172 593.641 250.812V516.469C593.641 525.109 586.656 532.094 578.016 532.094Z" fill="#267699"/>
<path d="M781.438 78.875V156.844L640.812 235.125V188.25V141.375V94.5V47.625V0.59375L781.438 78.875Z" fill="#AFAFAF"/>
<path d="M984.406 78.875V157H781.438V156.844V78.875H984.406Z" fill="#CCD1D9"/>
<path d="M859.703 688.25C885.484 688.25 937.828 709.344 937.828 735.125C937.828 761.062 885.484 782 859.703 782C833.781 782 813 761.219 812.828 735.281V735.125C812.828 709.344 833.781 688.25 859.703 688.25Z" fill="#538917"/>
<path d="M438 578.719V578.875C437.828 604.812 416.891 625.594 391.125 625.594C365.187 625.594 312.828 604.641 312.828 578.719C312.828 552.938 365.187 531.844 391.125 531.844C416.906 531.844 438 552.938 438 578.719Z" fill="#43740F"/>
<path d="M359.094 750.906C385.031 750.906 437.375 771.844 437.375 797.781C437.375 823.562 385.031 844.656 359.094 844.656C333.312 844.656 312.219 823.562 312.219 797.781C312.219 771.844 333.312 750.906 359.094 750.906Z" fill="#538917"/>
<path d="M187.375 735.125V735.281C187.219 761.219 166.281 782 140.5 782C114.562 782 62.2188 761.062 62.2188 735.125C62.2188 709.344 114.562 688.25 140.5 688.25C166.297 688.25 187.375 709.344 187.375 735.125Z" fill="#43740F"/>
<path d="M750.266 985.406C741.625 985.406 734.641 978.422 734.641 969.781V797.844C734.641 789.203 741.625 782.219 750.266 782.219C758.906 782.219 765.891 789.203 765.891 797.844V969.781C765.891 978.406 758.891 985.406 750.266 985.406Z" fill="#43740F"/>
<path d="M750.25 813.469C741.609 813.469 734.625 806.484 734.625 797.844C734.625 754.766 769.672 719.719 812.75 719.719C821.391 719.719 828.375 726.703 828.375 735.344C828.375 743.984 821.391 750.969 812.75 750.969C786.906 750.969 765.875 772 765.875 797.844C765.875 806.484 758.875 813.469 750.25 813.469Z" fill="#43740F"/>
<path d="M859.625 797.812C825.156 797.812 797.125 769.781 797.125 735.312C797.125 700.844 825.156 672.812 859.625 672.812C891.828 672.812 953.406 697.156 953.406 735.312C953.406 773.469 891.812 797.812 859.625 797.812ZM859.625 704.062C842.391 704.062 828.375 718.078 828.375 735.312C828.375 752.547 842.391 766.562 859.625 766.562C883 766.562 922.156 747 922.156 735.312C922.156 723.625 883 704.062 859.625 704.062Z" fill="#538917"/>
<path d="M249.734 876.031C241.094 876.031 234.109 869.047 234.109 860.406C234.109 817.328 269.156 782.281 312.234 782.281C320.875 782.281 327.859 789.266 327.859 797.906C327.859 806.547 320.875 813.531 312.234 813.531C286.391 813.531 265.359 834.562 265.359 860.406C265.359 869.031 258.375 876.031 249.734 876.031Z" fill="#43740F"/>
<path d="M359.109 860.375C324.641 860.375 296.609 832.344 296.609 797.875C296.609 763.406 324.641 735.375 359.109 735.375C391.312 735.375 452.891 759.719 452.891 797.875C452.891 836.031 391.312 860.375 359.109 860.375ZM359.109 766.625C341.875 766.625 327.859 780.641 327.859 797.875C327.859 815.109 341.875 829.125 359.109 829.125C382.484 829.125 421.641 809.562 421.641 797.875C421.641 786.188 382.484 766.625 359.109 766.625Z" fill="#538917"/>
<path d="M140.375 797.812C108.172 797.812 46.5938 773.469 46.5938 735.312C46.5938 697.156 108.172 672.812 140.375 672.812C174.844 672.812 202.875 700.844 202.875 735.312C202.875 769.781 174.844 797.812 140.375 797.812ZM140.375 704.062C117 704.062 77.8437 723.625 77.8437 735.312C77.8437 747 117 766.562 140.375 766.562C157.609 766.562 171.625 752.547 171.625 735.312C171.625 718.078 157.609 704.062 140.375 704.062Z" fill="#43740F"/>
<path d="M500.359 985.406C491.719 985.406 484.734 978.422 484.734 969.781V641.438C484.734 632.797 491.719 625.812 500.359 625.812C509 625.812 515.984 632.797 515.984 641.438V969.781C515.984 978.406 509 985.406 500.359 985.406Z" fill="#538917"/>
<path d="M500.375 657.062C491.734 657.062 484.75 650.078 484.75 641.438C484.75 615.594 463.719 594.562 437.875 594.562C429.234 594.562 422.25 587.578 422.25 578.938C422.25 570.297 429.234 563.312 437.875 563.312C480.953 563.312 516 598.359 516 641.438C516 650.078 509.016 657.062 500.375 657.062Z" fill="#538917"/>
<path d="M391 641.406C358.797 641.406 297.219 617.062 297.219 578.906C297.219 540.75 358.797 516.406 391 516.406C425.469 516.406 453.5 544.437 453.5 578.906C453.5 613.375 425.469 641.406 391 641.406ZM391 547.656C367.625 547.656 328.469 567.219 328.469 578.906C328.469 590.594 367.625 610.156 391 610.156C408.234 610.156 422.25 596.141 422.25 578.906C422.25 561.672 408.234 547.656 391 547.656Z" fill="#43740F"/>
<path d="M609.703 594.5C635.641 594.5 688 615.438 688 641.375C688 667.141 635.641 688.25 609.703 688.25C583.938 688.25 562.828 667.141 562.828 641.375C562.828 615.438 583.938 594.5 609.703 594.5Z" fill="#538917"/>
<path d="M500.359 719.625C491.719 719.625 484.734 712.641 484.734 704C484.734 660.922 519.781 625.875 562.859 625.875C571.5 625.875 578.484 632.859 578.484 641.5C578.484 650.141 571.5 657.125 562.859 657.125C537.016 657.125 515.984 678.156 515.984 704C515.984 712.641 509 719.625 500.359 719.625Z" fill="#43740F"/>
<path d="M609.734 703.969C575.266 703.969 547.234 675.938 547.234 641.469C547.234 607 575.266 578.969 609.734 578.969C641.938 578.969 703.516 603.313 703.516 641.469C703.516 679.625 641.938 703.969 609.734 703.969ZM609.734 610.219C592.5 610.219 578.484 624.234 578.484 641.469C578.484 658.703 592.5 672.719 609.734 672.719C633.109 672.719 672.266 653.156 672.266 641.469C672.266 629.781 633.125 610.219 609.734 610.219Z" fill="#538917"/>
<path d="M984.375 985.156H15.625C6.98438 985.156 0 978.172 0 969.531C0 960.891 6.98438 953.906 15.625 953.906H984.375C993.016 953.906 1000 960.891 1000 969.531C1000 978.172 993.016 985.156 984.375 985.156Z" fill="#965353"/>
</svg>
