<svg viewBox="0 0 953 1000" fill="none" xmlns="http://www.w3.org/2000/svg">
<path d="M142.129 524.758C63.7598 524.758 0 461 0 382.627C0 359.771 5.54688 337.176 16.082 316.975C16.7285 315.437 17.4766 313.934 18.3242 312.467L106.35 159.996C113.664 147.326 127.184 139.52 141.813 139.52C156.443 139.52 169.963 147.324 177.279 159.996L259.869 303.055C275.824 326.627 284.248 354.096 284.248 382.625C284.254 460.996 220.496 524.758 142.129 524.758Z" fill="#6BA8C2"/>
<path d="M259.875 303.059L177.281 160C169.965 147.33 156.447 139.523 141.814 139.523C141.224 139.523 140.638 139.557 140.052 139.58V524.705C140.746 524.717 141.431 524.758 142.127 524.758C220.494 524.758 284.252 461 284.252 382.627C284.254 354.1 275.83 326.631 259.875 303.059Z" fill="#9EE2F8"/>
<path d="M784.742 461.545C692.338 461.545 617.158 386.369 617.158 293.965C617.158 266.865 623.773 240.082 636.326 216.162C637.006 214.506 637.801 212.883 638.713 211.305L748.885 20.4746C756.199 7.80469 769.721 0 784.348 0C798.978 0 812.498 7.80469 819.811 20.4766L923.365 199.848C942.309 227.697 952.312 260.195 952.312 293.965C952.316 386.369 877.144 461.545 784.742 461.545Z" fill="#6BA8C2"/>
<path d="M923.367 199.848L819.814 20.4766C812.502 7.80469 798.982 0 784.352 0C784.264 0 784.18 0.0078125 784.096 0.0078125V461.525C784.314 461.525 784.527 461.541 784.746 461.541C877.148 461.541 952.322 386.365 952.322 293.961C952.316 260.199 942.314 227.697 923.367 199.848Z" fill="#9EE2F8"/>
<path d="M470.123 1000C348.992 1000 250.447 901.449 250.447 780.318C250.447 744.547 259.236 709.197 275.916 677.686C276.664 675.766 277.562 673.889 278.611 672.072L434.109 402.738C441.424 390.068 454.943 382.262 469.572 382.262C484.203 382.262 497.723 390.066 505.035 402.738L651.512 656.453C676.563 693.066 689.791 735.855 689.791 780.316C689.795 901.449 591.25 1000 470.123 1000Z" fill="#9EE2F8"/>
<path d="M470.123 1000C348.992 1000 250.447 901.449 250.447 780.318C250.447 744.547 259.236 709.197 275.916 677.686C276.664 675.766 277.562 673.889 278.611 672.072L434.109 402.738C441.424 390.068 454.943 382.262 469.572 382.262L470.123 1000Z" fill="#6BA8C2"/>
</svg>
