<svg viewBox="0 0 1000 1001" fill="none" xmlns="http://www.w3.org/2000/svg">
<path d="M62.5035 625.005C62.5035 636.509 53.1652 645.848 41.6589 645.848C30.1526 645.848 20.8143 636.509 20.8143 625.005C20.8143 613.499 30.1526 604.16 41.6589 604.16C53.1652 604.16 62.5035 613.499 62.5035 625.005Z" fill="#462F0B"/>
<path d="M145.815 625.005C145.815 636.509 136.506 645.848 125.002 645.848C113.498 645.848 104.159 636.509 104.159 625.005C104.159 613.499 113.498 604.16 125.002 604.16C136.506 604.16 145.815 613.499 145.815 625.005Z" fill="#462F0B"/>
<path d="M229.16 625.005C229.16 636.509 219.822 645.848 208.316 645.848C196.809 645.848 187.504 636.509 187.504 625.005C187.504 613.499 196.811 604.16 208.316 604.16C219.82 604.16 229.16 613.499 229.16 625.005Z" fill="#462F0B"/>
<path d="M312.503 625.005C312.503 636.509 303.167 645.848 291.661 645.848C280.154 645.848 270.816 636.509 270.816 625.005C270.816 613.499 280.154 604.16 291.661 604.16C303.167 604.16 312.503 613.499 312.503 625.005Z" fill="#462F0B"/>
<path d="M395.817 625.005C395.817 636.509 386.508 645.848 375.004 645.848C363.5 645.848 354.159 636.509 354.159 625.005C354.159 613.499 363.498 604.16 375.004 604.16C386.51 604.16 395.817 613.499 395.817 625.005Z" fill="#462F0B"/>
<path d="M479.16 625.005C479.16 636.509 469.822 645.848 458.318 645.848C446.812 645.848 437.505 636.509 437.505 625.005C437.505 613.499 446.813 604.16 458.318 604.16C469.822 604.16 479.16 613.499 479.16 625.005Z" fill="#462F0B"/>
<path d="M562.505 625.005C562.505 636.509 553.167 645.848 541.663 645.848C530.156 645.848 520.818 636.509 520.818 625.005C520.818 613.499 530.156 604.16 541.663 604.16C553.167 604.16 562.505 613.499 562.505 625.005Z" fill="#462F0B"/>
<path d="M645.819 625.005C645.819 636.509 636.51 645.848 625.008 645.848C613.501 645.848 604.163 636.509 604.163 625.005C604.163 613.499 613.501 604.16 625.008 604.16C636.512 604.16 645.819 613.499 645.819 625.005Z" fill="#462F0B"/>
<path d="M729.162 625.005C729.162 636.509 719.824 645.848 708.318 645.848C696.813 645.848 687.506 636.509 687.506 625.005C687.506 613.499 696.815 604.16 708.318 604.16C719.824 604.16 729.162 613.499 729.162 625.005Z" fill="#462F0B"/>
<path d="M812.509 625.005C812.509 636.509 803.171 645.848 791.665 645.848C780.159 645.848 770.82 636.509 770.82 625.005C770.82 613.499 780.159 604.16 791.665 604.16C803.171 604.16 812.509 613.499 812.509 625.005Z" fill="#462F0B"/>
<path d="M895.819 625.005C895.819 636.509 886.51 645.848 875.006 645.848C863.501 645.848 854.165 636.509 854.165 625.005C854.165 613.499 863.501 604.16 875.006 604.16C886.512 604.16 895.819 613.499 895.819 625.005Z" fill="#462F0B"/>
<path d="M979.164 625.005C979.164 636.509 969.828 645.848 958.322 645.848C946.815 645.848 937.508 636.509 937.508 625.005C937.508 613.499 946.817 604.16 958.322 604.16C969.826 604.16 979.164 613.499 979.164 625.005Z" fill="#462F0B"/>
<path d="M1000 625.009H0.000976562V1000H1000V625.009Z" fill="#F2CB8F"/>
<path d="M500.005 83.3431C488.499 83.3431 479.16 74.0048 479.16 62.5005V20.8446C479.16 9.33826 488.499 0 500.005 0C511.511 0 520.818 9.33826 520.818 20.8446V62.5005C520.818 74.0048 511.511 83.3431 500.005 83.3431Z" fill="#F6BB42"/>
<path d="M500.005 541.66C488.499 541.66 479.161 532.353 479.161 520.849V479.16C479.161 467.653 488.499 458.346 500.005 458.346C511.511 458.346 520.818 467.653 520.818 479.16V520.849C520.818 532.355 511.511 541.66 500.005 541.66Z" fill="#F6BB42"/>
<path d="M367.404 138.246C359.287 146.394 346.073 146.394 337.956 138.246L308.476 108.795C300.359 100.646 300.359 87.4623 308.476 79.3136C316.623 71.1961 329.807 71.1961 337.956 79.3136L367.404 108.795C375.553 116.915 375.553 130.128 367.404 138.246Z" fill="#FFCE54"/>
<path d="M691.505 462.344C683.356 470.491 670.172 470.491 662.056 462.344L632.575 432.896C624.459 424.747 624.459 411.563 632.575 403.414C640.723 395.297 653.907 395.297 662.056 403.414L691.505 432.896C699.653 441.013 699.653 454.195 691.505 462.344Z" fill="#FFCE54"/>
<path d="M312.504 270.847C312.504 282.353 303.167 291.66 291.661 291.66H250.003C238.497 291.66 229.16 282.353 229.16 270.847C229.16 259.34 238.497 250.002 250.003 250.002H291.661C303.167 250.002 312.504 259.34 312.504 270.847Z" fill="#F6BB42"/>
<path d="M770.82 270.847C770.82 282.353 761.511 291.66 750.007 291.66H708.318C696.813 291.66 687.506 282.353 687.506 270.847C687.506 259.34 696.815 250.002 708.318 250.002H750.007C761.513 250.002 770.82 259.34 770.82 270.847Z" fill="#F6BB42"/>
<path d="M367.404 403.414C375.553 411.563 375.553 424.747 367.404 432.865L337.956 462.344C329.807 470.491 316.623 470.491 308.476 462.344C300.358 454.196 300.358 441.013 308.476 432.865L337.956 403.414C346.073 395.266 359.287 395.266 367.404 403.414Z" fill="#FFCE54"/>
<path d="M691.505 79.3155C699.653 87.4643 699.653 100.648 691.505 108.797L662.056 138.248C653.907 146.396 640.723 146.396 632.575 138.248C624.459 130.13 624.459 116.917 632.575 108.797L662.056 79.3155C670.172 71.198 683.387 71.198 691.505 79.3155Z" fill="#FFCE54"/>
<path d="M500.005 416.661C419.592 416.661 354.159 351.262 354.159 270.847C354.159 190.431 419.592 125.003 500.005 125.003C580.42 125.003 645.819 190.433 645.819 270.847C645.819 351.26 580.42 416.661 500.005 416.661Z" fill="#FFCE54"/>
<path d="M500.005 104.156C407.933 104.156 333.317 178.773 333.317 270.845C333.317 362.887 407.933 437.502 500.005 437.502C592.048 437.502 666.662 362.885 666.662 270.845C666.662 178.775 592.048 104.156 500.005 104.156ZM500.005 395.846C431.065 395.846 375.004 339.754 375.004 270.845C375.004 201.904 431.065 145.844 500.005 145.844C568.914 145.844 625.008 201.904 625.008 270.845C625.008 339.756 568.914 395.846 500.005 395.846Z" fill="#F6BB42"/>
<path d="M145.847 791.662C139.682 791.662 133.608 788.945 129.488 783.757C122.348 774.724 123.873 761.631 132.907 754.49L185.643 712.835C194.675 705.696 207.767 707.219 214.908 716.253C222.049 725.286 220.492 738.379 211.49 745.519L158.755 787.175C154.909 790.197 150.362 791.662 145.847 791.662Z" fill="#462F0B"/>
<path d="M229.16 875.007C226.963 875.007 224.734 874.671 222.568 873.938C211.642 870.276 205.753 858.498 209.415 847.572L226.811 795.445L108.341 637.515C101.413 628.3 103.275 615.239 112.492 608.34C121.707 601.443 134.768 603.305 141.667 612.491L266.699 779.179C270.818 784.642 271.978 791.783 269.812 798.283L248.937 860.785C246.005 869.483 237.887 875.007 229.16 875.007Z" fill="#462F0B"/>
<path d="M562.474 791.662C558.751 791.662 554.937 790.654 551.548 788.548L465.947 735.63C456.181 729.558 453.128 716.739 459.203 706.944C465.246 697.146 478.092 694.125 487.858 700.199L573.461 753.115C583.227 759.159 586.28 772.007 580.205 781.804C576.27 788.183 569.465 791.662 562.474 791.662Z" fill="#462F0B"/>
<path d="M812.509 916.661C811.105 916.661 809.64 916.538 808.207 916.233C796.944 913.852 789.743 902.805 792.124 891.545L810.619 803.899L741.219 770.022C731.881 765.475 727.334 754.701 730.569 744.846L771.861 618.532C775.432 607.576 787.212 601.625 798.138 605.196C809.093 608.766 815.045 620.546 811.474 631.472L775.797 740.543L843.517 773.593C852.093 777.804 856.701 787.265 854.747 796.635L832.895 900.15C830.819 909.948 822.152 916.661 812.509 916.661Z" fill="#462F0B"/>
<path d="M437.504 916.661C432.164 916.661 426.824 914.647 422.765 910.557C414.617 902.439 414.617 889.257 422.765 881.11L477.391 826.483L437.901 629.093C435.643 617.801 442.967 606.844 454.228 604.586C465.519 602.328 476.504 609.621 478.764 620.913L520.422 829.259C521.795 836.095 519.658 843.144 514.714 848.058L452.214 910.555C448.155 914.647 442.815 916.661 437.504 916.661Z" fill="#462F0B"/>
</svg>
