<svg viewBox="0 0 1000 1026" fill="none" xmlns="http://www.w3.org/2000/svg">
<path d="M1000 701.145V847.084L978.021 863.57L1000 880.049V1026H916.703L850.77 863.565L916.703 652.373C935.539 681.869 965.781 701.145 1000 701.145Z" fill="#89C6E9"/>
<path d="M916.703 652.375V1026H0.00976562V961.262L21.9883 944.779L0.00976562 928.297V701.145C34.207 701.145 64.5156 681.869 83.3496 652.375C102.207 681.869 132.471 701.145 166.668 701.145C200.865 701.145 231.195 681.869 250.029 652.375C268.887 681.869 299.15 701.145 333.348 701.145C367.545 701.145 397.809 681.869 416.687 652.375C435.545 681.869 465.809 701.145 500.006 701.145C534.225 701.145 564.533 681.869 583.367 652.375C602.225 681.869 632.443 701.145 666.685 701.145C700.883 701.145 731.146 681.869 750.025 652.375C768.904 681.869 799.123 701.145 833.322 701.145C867.562 701.145 897.869 681.869 916.703 652.375Z" fill="#89C6E9"/>
<path d="M384.611 961.262H351.645C342.541 961.262 335.162 953.885 335.162 944.779C335.162 935.674 342.543 928.297 351.645 928.297H384.611C393.715 928.297 401.094 935.674 401.094 944.779C401.094 953.885 393.715 961.262 384.611 961.262Z" fill="white"/>
<path d="M285.711 928.295H0V961.262H285.711C294.814 961.262 302.193 953.885 302.193 944.779C302.193 935.674 294.814 928.295 285.711 928.295Z" fill="white"/>
<path d="M549.445 798.836H351.645C342.541 798.836 335.162 791.457 335.162 782.354C335.162 773.248 342.543 765.871 351.645 765.871H549.445C558.551 765.871 565.928 773.248 565.928 782.354C565.93 791.457 558.551 798.836 549.445 798.836Z" fill="white"/>
<path d="M648.346 798.836H615.379C606.273 798.836 598.896 791.457 598.896 782.354C598.896 773.248 606.275 765.871 615.379 765.871H648.346C657.451 765.871 664.828 773.248 664.828 782.354C664.83 791.457 657.451 798.836 648.346 798.836Z" fill="white"/>
<path d="M268.908 880.049H202.975C193.871 880.049 186.492 872.672 186.492 863.566C186.492 854.461 193.873 847.084 202.975 847.084H268.908C278.012 847.084 285.391 854.461 285.391 863.566C285.391 872.672 278.012 880.049 268.908 880.049Z" fill="white"/>
<path d="M758.234 880.049H692.301C683.195 880.049 675.818 872.672 675.818 863.566C675.818 854.461 683.195 847.084 692.301 847.084H758.234C767.34 847.084 774.719 854.461 774.719 863.566C774.719 872.672 767.34 880.049 758.234 880.049Z" fill="white"/>
<path d="M824.168 847.084C815.062 847.084 807.686 854.461 807.686 863.566C807.686 872.672 815.062 880.049 824.168 880.049H999.99V847.082H824.168V847.084Z" fill="white"/>
<path d="M516.158 880.049H483.191C474.088 880.049 466.709 872.672 466.709 863.566C466.709 854.461 474.09 847.084 483.191 847.084H516.158C525.264 847.084 532.643 854.461 532.643 863.566C532.643 872.672 525.262 880.049 516.158 880.049Z" fill="white"/>
<path d="M197.801 798.836H65.9336C56.8301 798.836 49.4512 791.457 49.4512 782.354C49.4512 773.248 56.832 765.871 65.9336 765.871H197.801C206.904 765.871 214.283 773.248 214.283 782.354C214.283 791.457 206.904 798.836 197.801 798.836Z" fill="white"/>
<path d="M500 336H1000V711H0V336H500Z" fill="#5C3232"/>
<path d="M406.5 476.328C397.859 476.328 390.875 469.344 390.875 460.703C390.875 417.641 425.906 382.609 468.984 382.609C477.625 382.609 484.609 389.594 484.609 398.234C484.609 406.875 477.625 413.859 468.984 413.859C443.156 413.859 422.125 434.875 422.125 460.703C422.125 469.344 415.125 476.328 406.5 476.328Z" fill="#F7C292"/>
<path d="M593.734 538.891C585.094 538.891 578.109 531.906 578.109 523.266C578.109 497.437 557.078 476.422 531.25 476.422C522.609 476.422 515.625 469.437 515.625 460.797C515.625 452.156 522.609 445.172 531.25 445.172C574.328 445.172 609.359 480.203 609.359 523.266C609.359 531.906 602.375 538.891 593.734 538.891Z" fill="#F7C292"/>
<path d="M531.25 476.422H500C491.359 476.422 484.375 469.437 484.375 460.797C484.375 452.156 491.359 445.172 500 445.172H531.25C539.891 445.172 546.875 452.156 546.875 460.797C546.875 469.437 539.891 476.422 531.25 476.422Z" fill="#F7C292"/>
<path d="M500 413.859H468.984C460.344 413.859 453.359 406.875 453.359 398.234C453.359 389.594 460.344 382.609 468.984 382.609H500C508.641 382.609 515.625 389.594 515.625 398.234C515.625 406.875 508.641 413.859 500 413.859Z" fill="#F7C292"/>
<path d="M593.734 601.234C585.094 601.234 578.109 594.25 578.109 585.609V523.266C578.109 514.625 585.094 507.641 593.734 507.641C602.375 507.641 609.359 514.625 609.359 523.266V585.609C609.359 594.25 602.375 601.234 593.734 601.234Z" fill="#F7C292"/>
<path d="M406.5 601.234C397.859 601.234 390.875 594.25 390.875 585.609V460.703C390.875 452.062 397.859 445.078 406.5 445.078C415.141 445.078 422.125 452.062 422.125 460.703V585.609C422.125 594.25 415.125 601.234 406.5 601.234Z" fill="#F7C292"/>
<path d="M63 663.891C54.3594 663.891 47.2969 656.906 47.2969 648.266C47.2969 639.625 54.2031 632.641 62.8281 632.641H63C71.625 632.641 78.625 639.625 78.625 648.266C78.625 656.906 71.625 663.891 63 663.891Z" fill="#431D1D"/>
<path d="M63 538.891C54.3594 538.891 47.2969 531.906 47.2969 523.266C47.2969 514.625 54.2031 507.641 62.8281 507.641H63C71.625 507.641 78.625 514.625 78.625 523.266C78.625 531.906 71.625 538.891 63 538.891Z" fill="#431D1D"/>
<path d="M125.5 601.391C116.859 601.391 109.797 594.406 109.797 585.766C109.797 577.125 116.703 570.141 125.328 570.141H125.5C134.125 570.141 141.125 577.125 141.125 585.766C141.125 594.406 134.125 601.391 125.5 601.391Z" fill="#431D1D"/>
<path d="M188 663.891C179.359 663.891 172.297 656.906 172.297 648.266C172.297 639.625 179.203 632.641 187.828 632.641H188C196.625 632.641 203.625 639.625 203.625 648.266C203.625 656.906 196.625 663.891 188 663.891Z" fill="#431D1D"/>
<path d="M63 413.891C54.3594 413.891 47.2969 406.906 47.2969 398.266C47.2969 389.625 54.2031 382.641 62.8281 382.641H63C71.625 382.641 78.625 389.625 78.625 398.266C78.625 406.906 71.625 413.891 63 413.891Z" fill="#431D1D"/>
<path d="M125.5 476.391C116.859 476.391 109.797 469.406 109.797 460.766C109.797 452.125 116.703 445.141 125.328 445.141H125.5C134.125 445.141 141.125 452.125 141.125 460.766C141.125 469.406 134.125 476.391 125.5 476.391Z" fill="#431D1D"/>
<path d="M188 538.891C179.359 538.891 172.297 531.906 172.297 523.266C172.297 514.625 179.203 507.641 187.828 507.641H188C196.625 507.641 203.625 514.625 203.625 523.266C203.625 531.906 196.625 538.891 188 538.891Z" fill="#431D1D"/>
<path d="M250.5 601.391C241.859 601.391 234.797 594.406 234.797 585.766C234.797 577.125 241.703 570.141 250.328 570.141H250.5C259.125 570.141 266.125 577.125 266.125 585.766C266.125 594.406 259.125 601.391 250.5 601.391Z" fill="#431D1D"/>
<path d="M313 663.891C304.359 663.891 297.297 656.906 297.297 648.266C297.297 639.625 304.203 632.641 312.828 632.641H313C321.625 632.641 328.625 639.625 328.625 648.266C328.625 656.906 321.625 663.891 313 663.891Z" fill="#431D1D"/>
<path d="M188 413.891C179.359 413.891 172.297 406.906 172.297 398.266C172.297 389.625 179.203 382.641 187.828 382.641H188C196.625 382.641 203.625 389.625 203.625 398.266C203.625 406.906 196.625 413.891 188 413.891Z" fill="#431D1D"/>
<path d="M312.969 413.891C304.328 413.891 297.266 406.906 297.266 398.266C297.266 389.625 304.172 382.641 312.797 382.641H312.969C321.594 382.641 328.594 389.625 328.594 398.266C328.594 406.906 321.594 413.891 312.969 413.891Z" fill="#431D1D"/>
<path d="M687.875 413.891C679.234 413.891 672.172 406.906 672.172 398.266C672.172 389.625 679.078 382.641 687.703 382.641H687.875C696.5 382.641 703.5 389.625 703.5 398.266C703.5 406.906 696.5 413.891 687.875 413.891Z" fill="#431D1D"/>
<path d="M250.5 476.391C241.859 476.391 234.797 469.406 234.797 460.766C234.797 452.125 241.703 445.141 250.328 445.141H250.5C259.125 445.141 266.125 452.125 266.125 460.766C266.125 469.406 259.125 476.391 250.5 476.391Z" fill="#431D1D"/>
<path d="M313 538.891C304.359 538.891 297.297 531.906 297.297 523.266C297.297 514.625 304.203 507.641 312.828 507.641H313C321.625 507.641 328.625 514.625 328.625 523.266C328.625 531.906 321.625 538.891 313 538.891Z" fill="#431D1D"/>
<path d="M688 663.891C679.359 663.891 672.297 656.906 672.297 648.266C672.297 639.625 679.203 632.641 687.828 632.641H688C696.625 632.641 703.625 639.625 703.625 648.266C703.625 656.906 696.625 663.891 688 663.891Z" fill="#431D1D"/>
<path d="M688 538.891C679.359 538.891 672.297 531.906 672.297 523.266C672.297 514.625 679.203 507.641 687.828 507.641H688C696.625 507.641 703.625 514.625 703.625 523.266C703.625 531.906 696.625 538.891 688 538.891Z" fill="#431D1D"/>
<path d="M750.5 601.391C741.859 601.391 734.797 594.406 734.797 585.766C734.797 577.125 741.703 570.141 750.328 570.141H750.5C759.125 570.141 766.125 577.125 766.125 585.766C766.125 594.406 759.125 601.391 750.5 601.391Z" fill="#431D1D"/>
<path d="M813 663.891C804.359 663.891 797.297 656.906 797.297 648.266C797.297 639.625 804.203 632.641 812.828 632.641H813C821.625 632.641 828.625 639.625 828.625 648.266C828.625 656.906 821.625 663.891 813 663.891Z" fill="#431D1D"/>
<path d="M750.5 476.391C741.859 476.391 734.797 469.406 734.797 460.766C734.797 452.125 741.703 445.141 750.328 445.141H750.5C759.125 445.141 766.125 452.125 766.125 460.766C766.125 469.406 759.125 476.391 750.5 476.391Z" fill="#431D1D"/>
<path d="M813 538.891C804.359 538.891 797.297 531.906 797.297 523.266C797.297 514.625 804.203 507.641 812.828 507.641H813C821.625 507.641 828.625 514.625 828.625 523.266C828.625 531.906 821.625 538.891 813 538.891Z" fill="#431D1D"/>
<path d="M875.5 601.391C866.859 601.391 859.797 594.406 859.797 585.766C859.797 577.125 866.703 570.141 875.328 570.141H875.5C884.125 570.141 891.125 577.125 891.125 585.766C891.125 594.406 884.125 601.391 875.5 601.391Z" fill="#431D1D"/>
<path d="M938 663.891C929.359 663.891 922.297 656.906 922.297 648.266C922.297 639.625 929.203 632.641 937.828 632.641H938C946.625 632.641 953.625 639.625 953.625 648.266C953.625 656.906 946.625 663.891 938 663.891Z" fill="#431D1D"/>
<path d="M813 413.891C804.359 413.891 797.297 406.906 797.297 398.266C797.297 389.625 804.203 382.641 812.828 382.641H813C821.625 382.641 828.625 389.625 828.625 398.266C828.625 406.906 821.625 413.891 813 413.891Z" fill="#431D1D"/>
<path d="M875.5 476.391C866.859 476.391 859.797 469.406 859.797 460.766C859.797 452.125 866.703 445.141 875.328 445.141H875.5C884.125 445.141 891.125 452.125 891.125 460.766C891.125 469.406 884.125 476.391 875.5 476.391Z" fill="#431D1D"/>
<path d="M938 538.891C929.359 538.891 922.297 531.906 922.297 523.266C922.297 514.625 929.203 507.641 937.828 507.641H938C946.625 507.641 953.625 514.625 953.625 523.266C953.625 531.906 946.625 538.891 938 538.891Z" fill="#431D1D"/>
<path d="M938 413.891C929.359 413.891 922.297 406.906 922.297 398.266C922.297 389.625 929.203 382.641 937.828 382.641H938C946.625 382.641 953.625 389.625 953.625 398.266C953.625 406.906 946.625 413.891 938 413.891Z" fill="#431D1D"/>
<path d="M500 664C491.152 664 484 658.109 484 650.821V176.179C484 168.891 491.152 163 500 163C508.848 163 516 168.891 516 176.179V650.821C516 658.096 508.848 664 500 664Z" fill="#FFD2A6"/>
<path d="M500 163C491.152 163 484 167.548 484 173.175V336H516V173.175C516 167.548 508.848 163 500 163Z" fill="#43740F"/>
<path d="M562 125C562 159.531 534.031 187.5 499.5 187.5C464.969 187.5 437 159.531 437 125C437 90.4687 464.969 0 499.5 0C534.031 0 562 90.4687 562 125Z" fill="#538917"/>
</svg>
