<svg viewBox="0 0 952 1000" fill="none" xmlns="http://www.w3.org/2000/svg">
<path d="M833.129 504.303H35.9948V975.156H833.129V504.303Z" fill="#C0C0C0"/>
<path d="M308.401 366.658H202.03L207.847 257.238L212.21 175.143L218.332 60.2106L221.545 0H288.886L292.1 60.2106L298.222 175.143L302.584 257.238L308.401 366.658Z" fill="#C0C0C0"/>
<path d="M450.918 366.658H344.546L350.363 257.238L354.726 175.143L360.848 60.2106L364.061 0H431.403L434.616 60.2106L440.738 175.143L445.101 257.238L450.918 366.658Z" fill="#C0C0C0"/>
<path d="M540.497 366.656H112.451V504.305H540.497V366.656Z" fill="#BFBCBC"/>
<path d="M332.263 559.198H298.369V651.292H332.263V559.198Z" fill="#666666"/>
<path d="M389.154 559.198H355.261V651.292H389.154V559.198Z" fill="#666666"/>
<path d="M446.044 559.198H412.15V651.292H446.044V559.198Z" fill="#666666"/>
<path d="M502.935 559.198H469.042V651.292H502.935V559.198Z" fill="#666666"/>
<path d="M559.825 559.198H525.931V651.292H559.825V559.198Z" fill="#666666"/>
<path d="M616.716 559.198H582.823V651.292H616.716V559.198Z" fill="#666666"/>
<path d="M673.608 559.198H639.714V651.292H673.608V559.198Z" fill="#666666"/>
<path d="M730.497 559.198H696.604V651.292H730.497V559.198Z" fill="#666666"/>
<path d="M787.389 559.198H753.495V651.292H787.389V559.198Z" fill="#666666"/>
<path d="M903.494 690.789H512.977V975.156H903.494V690.789Z" fill="#BFBCBC"/>
<path d="M855.452 810.406H731.921V975.156H855.452V810.406Z" fill="#666666"/>
<path d="M828.438 810.406H731.923V975.156H828.438V810.406Z" fill="#4D4D4D"/>
<path d="M512.977 690.789H298.369V975.156H512.977V690.789Z" fill="#9C9C9C"/>
<path d="M434.616 60.2106H360.848L364.062 0H431.403L434.616 60.2106Z" fill="#814734"/>
<path d="M445.101 257.238H350.364L354.726 175.143H440.738L445.101 257.238Z" fill="#814734"/>
<path d="M249.645 0V366.654H202.03L221.545 0H249.645Z" fill="#9C9C9C"/>
<path d="M292.1 60.2106H218.332L221.545 0H288.886L292.1 60.2106Z" fill="#814734"/>
<path d="M302.584 257.238H207.847L212.21 175.143H298.222L302.584 257.238Z" fill="#814734"/>
<path d="M249.645 0V60.2106H218.332L221.545 0H249.645Z" fill="#A8614E"/>
<path d="M249.645 175.143V257.238H207.847L212.233 175.143H249.645Z" fill="#A8614E"/>
<path d="M392.161 0V366.654H344.547L364.062 0H392.161Z" fill="#9C9C9C"/>
<path d="M392.161 0V60.2106H360.848L364.062 0H392.161Z" fill="#A8614E"/>
<path d="M392.161 175.143V257.238H350.364L354.75 175.143H392.161Z" fill="#A8614E"/>
<path d="M177.531 412.045H144.693V504.303H177.531V412.045Z" fill="#666666"/>
<path d="M232.651 412.045H199.813V504.303H232.651V412.045Z" fill="#666666"/>
<path d="M287.772 412.045H254.934V504.303H287.772V412.045Z" fill="#666666"/>
<path d="M342.893 412.045H310.055V504.303H342.893V412.045Z" fill="#666666"/>
<path d="M398.014 412.045H365.176V504.303H398.014V412.045Z" fill="#666666"/>
<path d="M453.134 412.045H420.296V504.303H453.134V412.045Z" fill="#666666"/>
<path d="M508.255 412.045H475.417V504.303H508.255V412.045Z" fill="#666666"/>
<path d="M565.158 738.078H539.357V763.879H565.158V738.078Z" fill="#666666"/>
<path d="M609.724 738.078H583.923V763.879H609.724V738.078Z" fill="#666666"/>
<path d="M654.29 738.078H628.489V763.879H654.29V738.078Z" fill="#666666"/>
<path d="M698.853 738.078H673.052V763.879H698.853V738.078Z" fill="#666666"/>
<path d="M743.419 738.078H717.618V763.879H743.419V738.078Z" fill="#666666"/>
<path d="M787.984 738.078H762.183V763.879H787.984V738.078Z" fill="#666666"/>
<path d="M832.55 738.078H806.749V763.879H832.55V738.078Z" fill="#666666"/>
<path d="M877.113 738.078H851.312V763.879H877.113V738.078Z" fill="#666666"/>
<path d="M351.726 738.078H325.925V763.879H351.726V738.078Z" fill="#666666"/>
<path d="M396.292 738.078H370.491V763.879H396.292V738.078Z" fill="#666666"/>
<path d="M440.858 738.078H415.056V763.879H440.858V738.078Z" fill="#666666"/>
<path d="M485.421 738.078H459.62V763.879H485.421V738.078Z" fill="#666666"/>
<path d="M351.726 807.272H325.925V833.073H351.726V807.272Z" fill="#666666"/>
<path d="M396.292 807.272H370.491V833.073H396.292V807.272Z" fill="#666666"/>
<path d="M440.858 807.272H415.056V833.073H440.858V807.272Z" fill="#666666"/>
<path d="M485.421 807.272H459.62V833.073H485.421V807.272Z" fill="#666666"/>
<path d="M351.726 876.466H325.925V902.267H351.726V876.466Z" fill="#666666"/>
<path d="M396.292 876.466H370.491V902.267H396.292V876.466Z" fill="#666666"/>
<path d="M440.858 876.466H415.056V902.267H440.858V876.466Z" fill="#666666"/>
<path d="M485.421 876.466H459.62V902.267H485.421V876.466Z" fill="#666666"/>
<path d="M699.203 896.676H652.538V975.158H699.203V896.676Z" fill="#666666"/>
<path d="M253.773 504.303H35.9948V975.156H253.773V504.303Z" fill="#9C9C9C"/>
<path d="M88.3055 559.198H62.1924V787.335H88.3055V559.198Z" fill="#666666"/>
<path d="M134.729 559.198H108.616V787.335H134.729V559.198Z" fill="#666666"/>
<path d="M181.152 559.198H155.039V787.335H181.152V559.198Z" fill="#666666"/>
<path d="M227.576 559.198H201.463V787.335H227.576V559.198Z" fill="#666666"/>
<path d="M216.244 896.676H169.579V975.158H216.244V896.676Z" fill="#666666"/>
<path d="M823.248 903.806H731.921V955.573H823.248V903.806Z" fill="#A8614E"/>
<path d="M789.746 903.804H840.164L827.376 955.57H776.958L789.746 903.804Z" fill="#814734"/>
<path d="M766.145 975.156C771.553 975.156 775.938 970.771 775.938 965.363C775.938 959.955 771.553 955.57 766.145 955.57C760.736 955.57 756.352 959.955 756.352 965.363C756.352 970.771 760.736 975.156 766.145 975.156Z" fill="#808080"/>
<path d="M806.545 975.156C811.953 975.156 816.338 970.771 816.338 965.363C816.338 959.955 811.953 955.57 806.545 955.57C801.136 955.57 796.752 959.955 796.752 965.363C796.752 970.771 801.136 975.156 806.545 975.156Z" fill="#808080"/>
<path d="M761.062 975.156C766.47 975.156 770.855 970.771 770.855 965.363C770.855 959.955 766.47 955.57 761.062 955.57C755.654 955.57 751.269 959.955 751.269 965.363C751.269 970.771 755.654 975.156 761.062 975.156Z" fill="#666666"/>
<path d="M801.462 975.156C806.87 975.156 811.255 970.771 811.255 965.363C811.255 959.955 806.87 955.57 801.462 955.57C796.054 955.57 791.669 959.955 791.669 965.363C791.669 970.771 796.054 975.156 801.462 975.156Z" fill="#666666"/>
<path d="M777.626 969.332H802.107C803.953 969.332 805.449 967.835 805.449 965.989C805.449 964.143 803.953 962.647 802.107 962.647H777.626C775.78 962.647 774.284 964.143 774.284 965.989C774.284 967.835 775.78 969.332 777.626 969.332Z" fill="#808080"/>
<path d="M951.97 975.156H0.0302734V999.998H951.97V975.156Z" fill="#56885B"/>
</svg>
