<svg viewBox="0 0 980 1000" fill="none" xmlns="http://www.w3.org/2000/svg">
<path d="M490 402.174C471.986 402.174 457.391 387.578 457.391 369.564V163.043C457.391 73.1367 530.527 0 620.436 0C710.344 0 783.478 73.1367 783.478 163.043V195.652C783.478 213.666 768.883 228.262 750.869 228.262C732.855 228.262 718.26 213.666 718.26 195.652V163.043C718.26 109.1 674.377 65.2168 620.434 65.2168C566.49 65.2168 522.607 109.1 522.607 163.043V369.564C522.609 387.578 508.014 402.174 490 402.174Z" fill="#57565C"/>
<path d="M294.348 402.174C276.334 402.174 261.738 387.578 261.738 369.564V315.217C261.738 297.203 276.334 282.607 294.348 282.607C312.361 282.607 326.957 297.203 326.957 315.217V369.564C326.957 387.578 312.361 402.174 294.348 402.174Z" fill="#57565C"/>
<path d="M685.652 402.174C667.639 402.174 653.043 387.578 653.043 369.564V315.217C653.043 297.203 667.639 282.607 685.652 282.607C703.666 282.607 718.262 297.203 718.262 315.217V369.564C718.262 387.578 703.666 402.174 685.652 402.174Z" fill="#57565C"/>
<path d="M490 1000C436.057 1000 392.174 956.117 392.174 902.174V804.348H587.826V902.174C587.826 956.117 543.943 1000 490 1000Z" fill="#AAC9D6"/>
<path d="M490 1000C543.943 1000 587.826 956.117 587.826 902.174V804.348H490V1000Z" fill="#B2D5DE"/>
<path d="M816.088 478.262H163.912C145.898 478.262 131.303 492.857 131.303 510.871C131.303 708.656 292.213 869.566 489.998 869.566C687.783 869.566 848.693 708.656 848.693 510.871C848.695 492.857 834.1 478.262 816.088 478.262Z" fill="#C6DCE5"/>
<path d="M816.088 478.262H490V869.566C687.785 869.566 848.695 708.656 848.695 510.871C848.695 492.857 834.1 478.262 816.088 478.262Z" fill="#BED4DD"/>
<path d="M881.305 543.478H98.6953C44.752 543.478 0.869141 499.596 0.869141 445.652C0.869141 391.709 44.752 347.826 98.6953 347.826H881.305C935.248 347.826 979.131 391.709 979.131 445.652C979.131 499.596 935.248 543.478 881.305 543.478Z" fill="#DADADA"/>
<path d="M881.305 347.826H490V543.478H881.305C935.248 543.478 979.131 499.596 979.131 445.652C979.131 391.709 935.248 347.826 881.305 347.826Z" fill="#D3E5ED"/>
</svg>
